<svg width="135" height="134" fill="none" xmlns="http://www.w3.org/2000/svg"><rect width="134.091" height="133.957" rx="66.978" fill="#D2F75A"/><path d="m67.014 49.58-5 13.334-13.333 5 13.334 5 5 13.333 5-13.333 13.333-5-13.334-5-5-13.334Zm.398-31.977V15.81h1.771v-.99h-1.77v-1.793h-1.035v1.793h-1.77v.99h1.77v1.793h1.034Zm12.25 1.642.446-1.736 1.715.44.246-.959-1.715-.44.446-1.737-1.002-.257-.445 1.737-1.716-.44-.246.958 1.715.44-.446 1.737 1.002.258Zm11.456 4.638.864-1.572 1.552.854.477-.868-1.552-.853.864-1.571-.906-.498-.864 1.57L90 20.094l-.477.867 1.552.853-.864 1.572.906.498Zm15.838 16.52 2.499-1.585 2.416 3.808.892-.566-2.417-3.808 1.932-1.226 2.505 3.947.901-.571-3.141-4.95-6.223 3.948.636 1.003Zm5.083 9.979 2.721-.884.418 1.287c.285.879.16 1.278-.292 1.772l-1.572 1.748.422 1.297 1.649-1.831c.357-.394.59-.747.559-1.339l.074-.023c.501 1.294 1.461 1.827 2.622 1.45 1.308-.426 1.741-1.654 1.225-3.244l-1.183-3.64-7.01 2.277.367 1.13Zm5.995-1.948.812 2.5c.306.942.114 1.525-.744 1.804-.879.285-1.356-.08-1.662-1.022l-.812-2.5 2.406-.782Zm-2.954 19.141 1.065-.067-.296-4.7 2.108-.132.285 4.534 1.054-.066-.285-4.534 2.064-.13.296 4.699 1.064-.067-.37-5.885-7.355.463.37 5.885Zm-1.675 11.926 1.048.2.882-4.624 2.074.396-.851 4.462 1.037.198.852-4.462 2.031.387-.882 4.625 1.048.2 1.105-5.792-7.24-1.381-1.104 5.791Zm-8.826 17.182 2.28 1.886-2.875 3.475.814.673 2.874-3.475 1.763 1.459-2.98 3.602.822.68 3.738-4.517-5.679-4.698-.757.915Zm-7.919 7.918 1.68 2.313-1.094.796c-.748.543-1.166.547-1.775.27l-2.149-.955-1.103.802 2.25 1.002c.486.219.893.331 1.447.119l.045.062c-1.076.877-1.286 1.954-.568 2.942.808 1.113 2.11 1.146 3.463.163l3.097-2.25-4.332-5.963-.962.699Zm3.704 5.099-2.127 1.545c-.8.582-1.414.579-1.945-.15-.543-.748-.343-1.315.458-1.897l2.127-1.545 1.487 2.047Zm-13.024.693-.082 2.091-3.62 1.434-1.493-1.468-1.248.494 5.772 5.642 1.554-.616.345-8.063-1.227.486Zm-.234 5.712-.014 1.13-.082.032-.783-.813-1.757-1.718 2.741-1.086-.105 2.455Zm-10.568-2.111.566 4.486.178 1.053-.088.011-.58-1.002-2.531-3.794-1.419.179-1.507 4.304-.314 1.115-.087.011-.09-1.064-.567-4.485-1.179.148.924 7.312 1.604-.202 1.55-4.498.452-1.598.087-.011.858 1.433 2.64 3.968 1.605-.203-.924-7.312-1.178.149Zm-19.16-.02-.134 1.059 4.671.59-.264 2.095-4.508-.569-.132 1.048 4.507.569-.259 2.052-4.67-.59-.135 1.058 5.85.739.924-7.312-5.85-.739Zm-6.295-1.858-1.052 2.659-1.258-.498c-.86-.34-1.088-.691-1.18-1.354l-.345-2.326-1.268-.502.36 2.438c.075.526.199.93.674 1.284l-.028.072c-1.317-.439-2.34-.039-2.789 1.096-.506 1.279.164 2.396 1.719 3.011l3.559 1.409 2.713-6.852-1.105-.437Zm-2.32 5.86-2.444-.968c-.92-.364-1.247-.884-.915-1.723.34-.859.925-.993 1.846-.629l2.444.968-.931 2.352ZM29.655 96.877l-4.857 4.018-1.844-2.229-.822.68 4.446 5.374.822-.68-1.851-2.238 4.856-4.018-.75-.907ZM22.12 83.972l-.965.454 2.005 4.26-1.911.9-1.934-4.111-.956.45 1.934 4.11-1.87.88-2.005-4.26-.966.455 2.51 5.335 6.67-3.138-2.511-5.335Zm-1.481-4.626-4.441.847-1.04.243-.017-.086.964-.643 3.627-2.764-.267-1.404-4.39-1.234-1.133-.244-.017-.086 1.057-.157 4.44-.847-.222-1.167-7.24 1.381.303 1.588 4.587 1.264 1.623.351.017.087-1.377.946-3.794 2.885.303 1.588 7.24-1.38-.223-1.168ZM19.12 65.55l-2.217-.14.152-2.415c.102-1.636-.771-2.815-2.396-2.918-1.636-.102-2.64.959-2.742 2.594l-.227 3.601 7.356.463.074-1.186Zm-6.145-2.702c.07-1.109.523-1.653 1.61-1.585 1.086.069 1.468.666 1.398 1.774l-.145 2.306-3.008-.19.145-2.305Zm9.636-14.244-1.015-.33-1.403 4.32-5.995-1.947-.367 1.13 7.01 2.277 1.77-5.45Zm2.439-4.944-1.163-1.74 2.087-3.288 2.07.31.719-1.133-7.985-1.172-.896 1.412 4.46 6.726.707-1.114Zm-3.169-4.759-.652-.922.047-.074 1.112.197 2.431.358-1.58 2.489-1.358-2.048Zm12.897-7.42-4.315-4.595 2.109-1.98-.73-.778-5.084 4.774.73.778 2.117-1.988 4.315 4.595.858-.806Zm12.407-8.33-.514-.935-4.126 2.268-1.018-1.85 3.981-2.189L45 19.52l-3.981 2.188-.997-1.812 4.126-2.268-.514-.935-5.167 2.84 3.55 6.459 5.168-2.84Z" fill="#000"/></svg>