<svg xmlns="http://www.w3.org/2000/svg" width="111" height="18"><path d="M 8.106 16.579 C 12.792 16.579 14.662 14.423 14.662 12.025 C 14.662 10.001 13.474 8.395 10.174 7.867 L 6.038 7.207 C 4.806 6.987 4.322 6.679 4.322 5.821 C 4.322 4.875 5.048 4.413 7.424 4.413 C 10.35 4.413 11.076 5.007 11.076 6.415 L 11.076 6.723 L 14.398 6.723 L 14.398 6.591 C 14.398 3.489 12.286 1.399 7.754 1.399 C 2.804 1.399 1 3.731 1 5.953 C 1 8.351 2.562 9.671 5.202 10.089 L 9.338 10.683 C 10.856 10.947 11.362 11.277 11.362 12.179 C 11.362 13.169 10.746 13.565 8.106 13.565 C 5.114 13.565 4.432 13.015 4.432 11.651 L 4.432 11.255 L 1.132 11.255 L 1.132 11.387 C 1.132 14.819 3.64 16.579 8.106 16.579 Z" fill="rgb(255,255,255)"></path><path d="M 25.596 16.579 C 30.59 16.579 33.604 13.587 33.604 8.989 C 33.604 7.163 33.142 5.601 32.262 4.369 L 33.824 2.917 L 32.24 1.245 L 30.612 2.763 C 29.292 1.883 27.62 1.399 25.596 1.399 C 20.712 1.399 17.676 4.391 17.676 8.989 C 17.676 10.793 18.138 12.355 18.996 13.587 L 17.39 15.083 L 18.974 16.755 L 20.646 15.193 C 21.944 16.095 23.616 16.579 25.596 16.579 Z M 21.174 8.989 C 21.174 5.711 22.362 4.567 25.596 4.567 C 26.674 4.567 27.554 4.699 28.214 4.985 L 21.482 11.277 C 21.262 10.661 21.174 9.913 21.174 8.989 Z M 25.596 13.411 C 24.518 13.411 23.66 13.279 23.022 12.993 L 29.776 6.701 C 29.974 7.295 30.084 8.065 30.084 8.989 C 30.084 12.267 28.83 13.411 25.596 13.411 Z" fill="rgb(255,255,255)"></path><path d="M 49.121 16.359 L 49.121 13.389 L 40.343 13.389 L 40.343 1.619 L 37.043 1.619 L 37.043 16.359 Z" fill="rgb(255,255,255)"></path><path d="M 62.217 16.359 L 68.333 1.619 L 64.373 1.619 L 60.017 13.015 L 59.797 13.015 L 55.375 1.619 L 51.393 1.619 L 57.509 16.359 Z" fill="rgb(255,255,255)"></path><path d="M 83.509 16.359 L 83.509 13.389 L 74.335 13.389 L 74.335 10.419 L 83.179 10.419 L 83.179 7.471 L 74.335 7.471 L 74.335 4.589 L 83.509 4.589 L 83.509 1.619 L 71.035 1.619 L 71.035 16.359 Z" fill="rgb(255,255,255)"></path><path d="M 90.3 16.359 L 90.3 1.619 L 87 1.619 L 87 16.359 Z" fill="rgb(255,255,255)"></path><path d="M 100.979 16.579 C 104.169 16.579 105.709 15.127 106.215 13.191 L 106.391 13.191 L 106.391 16.359 L 109.449 16.359 L 109.449 8.571 L 101.155 8.571 L 101.155 11.013 L 106.149 11.013 C 106.061 12.883 105.027 13.411 101.639 13.411 C 98.405 13.411 97.195 12.267 97.195 8.989 C 97.195 5.711 98.449 4.567 101.793 4.567 C 104.631 4.567 105.753 5.381 105.753 7.097 L 105.753 7.273 L 109.427 7.273 L 109.427 7.097 C 109.427 3.555 106.501 1.399 101.881 1.399 C 96.821 1.399 93.697 4.391 93.697 8.989 C 93.697 13.587 96.469 16.579 100.979 16.579 Z" fill="rgb(255,255,255)"></path></svg>